<?xml version="1.0" encoding="utf-8"?>
<?xml-stylesheet type="text/xsl" href="rss1.xsl"?>
<rss version="2.0" xmlns:atom="http://www.w3.org/2005/Atom" xmlns:content="http://purl.org/rss/1.0/modules/content/" xmlns:dc="http://purl.org/dc/elements/1.1/" xmlns:media="http://search.yahoo.com/mrss/">
<channel>
 <title>Getty</title>
 <link>http://www.gettyimg.com/</link>
 <atom:link href="http://www.gettyimg.com/" rel="self" type="application/rss+xml" />

 
                <item>
                <title><![CDATA[【Interviews / TV shows / Others】HDTV - Billie Eilish - Interview [7 Sunrise Australia 21 May 2024 7HD 1080i]_azamusic]]></title>
                <link><![CDATA[https://sharemania.us/threads/billie-eilish-interview-7-sunrise-australia-21-may-2024-7hd-1080i-_azamusic.244832/]]></link>
                <description><![CDATA[<article>
<blockquote class="messageText SelectQuoteContainer ugc baseHtml">
<span style="font-size: 15px"><span style="color: #0000b3"><b>Billie doing a sit down interview with 7 Sunrise Australia from the U.S.</b></span><br>
</span><br>
<div class="ToggleTriggerAnchor bbCodeSpoilerContainer">
<button type="button" class="button bbCodeSpoilerButton ToggleTrigger Tooltip JsOnly" data-target="> .SpoilerTarget"><span>Spoiler: <span class="SpoilerTitle">Media Info</span></span></button>
<div class="SpoilerTarget bbCodeSpoilerText">Media Info<br>
General<br>
ID : 1 (0x1)<br>
Complete name : \\192.168.1.1\data\aza\edit\Billie Eilish - Interview [7 Sunrise Australia 21 May 2024 7HD]_azamusic.ts<br>
Format : MPEG-TS<br>
File size : 147 MiB<br>
Duration : 4 min 57 s<br>
Overall bit rate mode : Variable<br>
Overall bit rate : 4 142 kb/s<br>
Frame rate : 25.000 FPS<br>
<br>
Video<br>
ID : 1089 (0x441)<br>
Menu ID : 1348 (0x544)<br>
Format : AVC<br>
Format/Info : Advanced Video Codec<br>
Format profile : High@L4<br>
Format settings : CABAC / 4 Ref Frames<br>
Format settings, CABAC : Yes<br>
Format settings, Reference fra : 4 frames<br>
Format settings, GOP : M=8, N=24<br>
Codec ID : 27<br>
Duration : 4 min 57 s<br>
Bit rate : 3 550 kb/s<br>
Width : 1 920 pixels<br>
Height : 1 080 pixels<br>
Display aspect ratio : 16:9<br>
Frame rate : 25.000 FPS<br>
Color space : YUV<br>
Chroma subsampling : 4:2:0<br>
Bit depth : 8 bits<br>
Scan type : MBAFF<br>
Scan type, store method : Interleaved fields<br>
Scan order : Top Field First<br>
Bits/(Pixel*Frame) : 0.068<br>
Stream size : 126 MiB (86%)<br>
Color range : Limited<br>
<br>
Audio<br>
ID : 1091 (0x443)<br>
Menu ID : 1348 (0x544)<br>
Format : AC-3<br>
Format/Info : Audio Coding 3<br>
Commercial name : Dolby Digital<br>
Codec ID : 6<br>
Duration : 4 min 57 s<br>
Bit rate mode : Constant<br>
Bit rate : 384 kb/s<br>
Channel(s) : 2 channels<br>
Channel layout : L R<br>
Sampling rate : 48.0 kHz<br>
Frame rate : 31.250 FPS (1536 SPF)<br>
Compression mode : Lossy<br>
Delay relative to video : -40 ms<br>
Stream size : 13.6 MiB (9%)<br>
Language : English<br>
Service kind : Complete Main<br>
<br>
Text<br>
ID : 1092 (0x444)-801<br>
Menu ID : 1348 (0x544)<br>
Format : Teletext Subtitle<br>
Language : English</div>
</div><span style="font-size: 15px"><br>
</span>
<div class="bbCodeBlock bbCodeVfcHH HiddenContent">
<div class="attribution type">Hidden Content:</div>
<blockquote>You must reply before you can see the hidden data contained here.</blockquote>
</div><span style="font-size: 15px"><br>
<br>
<img src="https://www.aaronsouth.com/azamusic/billie_sunrise2024.png" class="bbCodeImage LbImage" alt="[​IMG]" data-url="https://www.aaronsouth.com/azamusic/billie_sunrise2024.png" style=""> </span>
<div class="messageTextEndMarker">&nbsp;</div>
</blockquote>
</article>]]></description>
                <author><![CDATA[azamusic]]></author>
                </item>

                
                <item>
                <title><![CDATA[【Requests】[REQ AUD] - Can someone please Rip these songs Please]]></title>
                <link><![CDATA[https://sharemania.us/threads/can-someone-please-rip-these-songs-please.244818/]]></link>
                <description><![CDATA[<article>
<blockquote class="messageText SelectQuoteContainer ugc baseHtml">
Could you rip them?<br>
Thanxs in advance!! <img src="styles/default/xenforo/smilies/black_heart-48.png" class="mceSmilie" alt=":blackheart:" title="Black heart    :blackheart:"><img src="styles/default/xenforo/smilies/victory-48.png" class="mceSmilie" alt=":victory:" title="Victory    :victory:"><img src="styles/default/xenforo/smilies/black_heart-48.png" class="mceSmilie" alt=":blackheart:" title="Black heart    :blackheart:"><br>
<br>
<a href="https://www.qobuz.com/gb-en/album/vogue-house-tunetank/ppz06jpgg60qc" target="_blank" class="externalLink" rel="nofollow">https://www.qobuz.com/gb-en/album/vogue-house-tunetank/ppz06jpgg60qc</a><br>
<br>
<a href="https://www.qobuz.com/gb-en/album/journey-of-the-birds-vens-adams-amp-simon-gro/qz01f7g2t7tzb" target="_blank" class="externalLink" rel="nofollow">https://www.qobuz.com/gb-en/album/journey-of-the-birds-vens-adams-amp-simon-gro/qz01f7g2t7tzb</a><br>
<br>
<a href="https://www.qobuz.com/gb-en/album/shadows-vens-adams/k60t2w40gyezb" target="_blank" class="externalLink" rel="nofollow">https://www.qobuz.com/gb-en/album/shadows-vens-adams/k60t2w40gyezb</a><br>
<br>
<a href="https://www.qobuz.com/gb-en/album/rainy-nights-for-lonely-hearts-vens-adams/poqlmoig36nvc" target="_blank" class="externalLink" rel="nofollow">https://www.qobuz.com/gb-en/album/rainy-nights-for-lonely-hearts-vens-adams/poqlmoig36nvc </a><br>
<br>
<a href="https://www.qobuz.com/us-en/album/i-hear-your-voice-loren-allred/a2xd6sb7mcj5b" target="_blank" class="externalLink" rel="nofollow">https://www.qobuz.com/us-en/album/i-hear-your-voice-loren-allred/a2xd6sb7mcj5b</a><br>
<br>
<a href="https://www.qobuz.com/us-en/album/late-bloomer-loren-allred/ib6xq510hoosa" target="_blank" class="externalLink" rel="nofollow">https://www.qobuz.com/us-en/album/late-bloomer-loren-allred/ib6xq510hoosa</a><br>
<br>
<a href="https://www.qobuz.com/us-en/album/no-promises-to-keep-final-fantasy-vii-rebirth-theme-song-loren-allred/el50ke5s450qc" target="_blank" class="externalLink" rel="nofollow">https://www.qobuz.com/us-en/album/n...rebirth-theme-song-loren-allred/el50ke5s450qc</a>
<div class="messageTextEndMarker">&nbsp;</div>
</blockquote>
</article>]]></description>
                <author><![CDATA[Edbeby]]></author>
                </item>

                </channel></rss>